<svg width="13" height="13" viewBox="0 0 13 13" fill="none" xmlns="http://www.w3.org/2000/svg">
<path d="M0.590909 13H12.4091C12.7354 13 13 12.7354 13 12.4091V1.77273C13 1.44639 12.7354 1.18182 12.4091 1.18182H9.62121V0.590909C9.62121 0.26457 9.35664 0 9.0303 0C8.70396 0 8.43939 0.26457 8.43939 0.590909V1.18182H4.68182V0.590909C4.68182 0.26457 4.41725 0 4.09091 0C3.76457 0 3.5 0.26457 3.5 0.590909V1.18182H0.590909C0.26457 1.18182 0 1.44639 0 1.77273V12.4091C0 12.7354 0.26457 13 0.590909 13ZM1.18182 11.8182V4.72727H11.8182V11.8182H1.18182ZM11.8182 2.36364V3.54545H1.18182V2.36364H11.8182Z" fill="#748393"/>
</svg>
