<svg width="15" height="14" viewBox="0 0 15 14" fill="none" xmlns="http://www.w3.org/2000/svg">
<path d="M0.438802 10.5473H11.9237C12.0268 10.5473 12.1263 10.5113 12.2053 10.4456C12.3156 10.3532 14.8319 8.18853 14.9854 3.51575H2.65077C2.49792 7.75738 0.180479 9.75107 0.156396 9.77097C0.0152071 9.89027 -0.0367389 10.0851 0.0267799 10.2585C0.0898591 10.4315 0.254252 10.5473 0.438802 10.5473Z" fill="#1B1D1F"/>
<path d="M14.5606 0.878949H12.3633V0.439475C12.3633 0.193369 12.1699 0 11.9238 0C11.6777 0 11.4843 0.193369 11.4843 0.439475V0.878949H9.25765V0.439475C9.25765 0.193369 9.06428 0 8.81817 0C8.57207 0 8.3787 0.193369 8.3787 0.439475V0.878949H6.18132V0.439475C6.18132 0.193369 5.98796 0 5.74185 0C5.49574 0 5.30238 0.193369 5.30238 0.439475V0.878949H3.105C2.8589 0.878949 2.66553 1.07232 2.66553 1.31842V2.63685H15.0001V1.31842C15.0001 1.07232 14.8067 0.878949 14.5606 0.878949Z" fill="#1B1D1F"/>
<path d="M12.7697 11.1195C12.5311 11.3182 12.2315 11.4263 11.9238 11.4263H2.66553V12.7448C2.66553 12.9877 2.86209 13.1842 3.105 13.1842H14.5606C14.8036 13.1842 15.0001 12.9877 15.0001 12.7448V7.81836C14.1528 9.8971 12.9704 10.9514 12.7697 11.1195Z" fill="#1B1D1F"/>
</svg>
