<svg width="13" height="11" viewBox="0 0 13 11" fill="none" xmlns="http://www.w3.org/2000/svg">
<path d="M1.24774 3.14842C1.41219 3.26446 1.9079 3.60911 2.73489 4.18219C3.5619 4.75527 4.19545 5.19652 4.63557 5.50598C4.68392 5.5399 4.78665 5.61364 4.9438 5.72729C5.10099 5.84103 5.23159 5.93293 5.33551 6.00303C5.43951 6.07311 5.56524 6.15173 5.71281 6.23875C5.86034 6.3257 5.9994 6.39111 6.12998 6.43441C6.26058 6.47806 6.38148 6.49968 6.49269 6.49968H6.49999H6.50731C6.61852 6.49968 6.73947 6.47803 6.87007 6.43441C7.0006 6.39111 7.13979 6.32563 7.28719 6.23875C7.43466 6.15163 7.56039 6.07309 7.66439 6.00303C7.76839 5.93293 7.89889 5.84103 8.05612 5.72729C8.21325 5.61354 8.3161 5.5399 8.36446 5.50598C8.80932 5.19652 9.94112 4.41059 11.7595 3.14827C12.1125 2.90172 12.4075 2.60423 12.6444 2.256C12.8815 1.90792 13 1.54277 13 1.16074C13 0.8415 12.885 0.568224 12.6553 0.34094C12.4256 0.113604 12.1535 0 11.8392 0H1.16066C0.788293 0 0.501729 0.125724 0.301022 0.377173C0.100341 0.628673 0 0.943035 0 1.32023C0 1.62491 0.133042 1.95508 0.399 2.31053C0.664932 2.666 0.947939 2.94533 1.24774 3.14842Z" fill="#748393"/>
<path d="M12.2744 3.92445C10.6883 4.99801 9.48391 5.83234 8.66185 6.42727C8.38618 6.63032 8.16256 6.78882 7.99082 6.9024C7.81908 7.01605 7.59067 7.13212 7.30528 7.25055C7.01999 7.36916 6.7541 7.42829 6.50741 7.42829H6.50001H6.49272C6.24607 7.42829 5.98004 7.36916 5.69475 7.25055C5.40945 7.13212 5.1809 7.01605 5.00921 6.9024C4.83757 6.78882 4.61387 6.63032 4.33823 6.42727C3.68529 5.94851 2.48349 5.11413 0.732774 3.92445C0.457034 3.74079 0.212802 3.53028 0 3.29333V9.05321C0 9.3726 0.113604 9.64572 0.34094 9.87303C0.568224 10.1004 0.841525 10.2141 1.16074 10.2141H11.8393C12.1585 10.2141 12.4318 10.1004 12.6591 9.87303C12.8864 9.64564 13 9.37262 13 9.05321V3.29333C12.792 3.52537 12.5503 3.73589 12.2744 3.92445Z" fill="#748393"/>
</svg>
