<svg width="14" height="15" viewBox="0 0 14 15" fill="none" xmlns="http://www.w3.org/2000/svg">
<path d="M6.24769 9.22888C6.03411 9.44246 6.03411 9.78872 6.24769 10.0023C6.46125 10.2158 6.80753 10.2159 7.02111 10.0023L9.1367 7.88669C9.34968 7.67371 9.34927 7.32587 9.1367 7.1133L7.02111 4.99771C6.80753 4.78413 6.46125 4.78413 6.24769 4.99771C6.03414 5.21129 6.03411 5.55755 6.24769 5.7711L7.42974 6.95312H0.546875C0.244836 6.95312 0 7.19795 0 7.49999C0 7.80203 0.244836 8.04687 0.546875 8.04687H7.42974L6.24769 9.22888Z" fill="#1B1D1F"/>
<path d="M11.8547 0.711914C11.7511 0.57823 11.5915 0.5 11.4224 0.5H4.64844C4.3464 0.5 4.10156 0.744836 4.10156 1.04688C4.10156 1.34891 4.3464 1.59375 4.64844 1.59375H11.1486C12.3429 3.24903 12.9062 5.40684 12.9062 7.5C12.9062 9.59221 12.3433 11.7504 11.1486 13.4062H4.64844C4.3464 13.4062 4.10156 13.6511 4.10156 13.9531C4.10156 14.2552 4.3464 14.5 4.64844 14.5H11.4224C11.5915 14.5 11.7511 14.4218 11.8547 14.2881C13.3077 12.4129 14 9.9302 14 7.5C14 5.07007 13.3078 2.58723 11.8547 0.711914Z" fill="#1B1D1F"/>
</svg>
