<svg width="64" height="70" viewBox="0 0 64 70" fill="none" xmlns="http://www.w3.org/2000/svg">
<g filter="url(#filter0_d)">
<path d="M20 22C20 18.6863 22.6863 16 26 16H38C41.3137 16 44 18.6863 44 22V40C44 43.3137 41.3137 46 38 46H26C22.6863 46 20 43.3137 20 40V22Z" fill="white"/>
</g>
<path d="M12.5 10C12.5 8.067 14.067 6.5 16 6.5H48C49.933 6.5 51.5 8.067 51.5 10V42C51.5 43.933 49.933 45.5 48 45.5H16C14.067 45.5 12.5 43.933 12.5 42V10Z" fill="#FAFAFC" stroke="#E2E5EC"/>
<path d="M34.5395 19.8227H36V17.1197C35.748 17.0829 34.8814 17 33.8722 17C31.7664 17 30.3238 18.4075 30.3238 20.9943V23.375H28V26.3967H30.3238V34H33.1729V26.3975H35.4027L35.7567 23.3757H33.1722V21.2939C33.1729 20.4205 33.3942 19.8227 34.5395 19.8227Z" fill="black"/>
<defs>
<filter id="filter0_d" x="0" y="0" width="64" height="70" filterUnits="userSpaceOnUse" color-interpolation-filters="sRGB">
<feFlood flood-opacity="0" result="BackgroundImageFix"/>
<feColorMatrix in="SourceAlpha" type="matrix" values="0 0 0 0 0 0 0 0 0 0 0 0 0 0 0 0 0 0 127 0"/>
<feOffset dy="4"/>
<feGaussianBlur stdDeviation="10"/>
<feColorMatrix type="matrix" values="0 0 0 0 0 0 0 0 0 0 0 0 0 0 0 0 0 0 0.1 0"/>
<feBlend mode="normal" in2="BackgroundImageFix" result="effect1_dropShadow"/>
<feBlend mode="normal" in="SourceGraphic" in2="effect1_dropShadow" result="shape"/>
</filter>
</defs>
</svg>
