<svg width="24" height="24" viewBox="0 0 24 24" fill="none" xmlns="http://www.w3.org/2000/svg">
<path d="M0 4C0 1.79086 1.79086 0 4 0H20C22.2091 0 24 1.79086 24 4V20C24 22.2091 22.2091 24 20 24H4C1.79086 24 0 22.2091 0 20V4Z" fill="#214B9D"/>
<path d="M0 16H24V20C24 22.2091 22.2091 24 20 24H4C1.79086 24 0 22.2091 0 20V16Z" fill="#BA2A25"/>
<path d="M0 4C0 1.79086 1.79086 0 4 0H15C18.3137 0 21 2.68629 21 6V18C21 21.3137 18.3137 24 15 24H4C1.79086 24 0 22.2091 0 20V4Z" fill="#2556B3"/>
<path d="M0 16H21V20C21 22.2091 19.2091 24 17 24H4C1.79086 24 0 22.2091 0 20V16Z" fill="#D3312A"/>
<path d="M24 9L0 9L4.37114e-07 4C6.30243e-07 1.79086 1.79086 -1.94158e-06 4 -1.74846e-06L20 -3.49691e-07C22.2091 -1.56562e-07 24 1.79086 24 4L24 9Z" fill="#D3D0D1"/>
<path d="M21 9L0 9L4.37114e-07 4C6.30243e-07 1.79086 1.79086 -1.67932e-06 4 -1.48619e-06L17 -3.49691e-07C19.2091 -1.56562e-07 21 1.79086 21 4L21 9Z" fill="#E3E3E3"/>
</svg>
