<svg width="24" height="24" viewBox="0 0 24 24" fill="none" xmlns="http://www.w3.org/2000/svg">
<path d="M0 4C0 1.79086 1.79086 0 4 0H20C22.2091 0 24 1.79086 24 4V20C24 22.2091 22.2091 24 20 24H4C1.79086 24 0 22.2091 0 20V4Z" fill="#4C7FCB"/>
<path d="M0 12H24V20C24 22.2091 22.2091 24 20 24H4C1.79086 24 0 22.2091 0 20V12Z" fill="#ECD53B"/>
<path d="M0 4C0 1.79086 1.79086 0 4 0H15C18.3137 0 21 2.68629 21 6V18C21 21.3137 18.3137 24 15 24H4C1.79086 24 0 22.2091 0 20V4Z" fill="#6B9AE0"/>
<path d="M0 12H21V20C21 22.2091 19.2091 24 17 24H4C1.79086 24 0 22.2091 0 20V12Z" fill="#FBE659"/>
</svg>
