<svg width="20" height="20" viewBox="0 0 20 20" fill="none" xmlns="http://www.w3.org/2000/svg">
<path d="M0.05 10.0001C0.05 4.51367 4.51361 0.05 10 0.05C15.4864 0.05 19.95 4.51367 19.95 10.0001C19.95 15.4864 15.4864 19.95 10 19.95C4.51361 19.95 0.05 15.4864 0.05 10.0001ZM1.76818 10.0001C1.76818 14.5391 5.46087 18.2318 10 18.2318C14.5391 18.2318 18.2318 14.5391 18.2318 10.0001C18.2318 5.46099 14.5391 1.76818 10 1.76818C5.46087 1.76818 1.76818 5.46099 1.76818 10.0001Z" fill="#2E4873" stroke="white" stroke-width="0.1"/>
<path d="M8.83809 5.4551C8.83809 4.81402 9.35937 4.29243 9.99996 4.29243C10.6406 4.29243 11.1618 4.81402 11.1618 5.4551C11.1618 6.09553 10.6406 6.61667 9.99996 6.61667C9.35933 6.61667 8.83809 6.09553 8.83809 5.4551Z" fill="#2E4873" stroke="white" stroke-width="0.1"/>
<path d="M9.14082 9.39395C9.14082 8.91951 9.52546 8.53486 9.99991 8.53486C10.4744 8.53486 10.859 8.91951 10.859 9.39395V14.8485C10.859 15.3229 10.4744 15.7076 9.99991 15.7076C9.52546 15.7076 9.14082 15.3229 9.14082 14.8485V9.39395Z" fill="#2E4873" stroke="white" stroke-width="0.1"/>
</svg>
