<svg width="40" height="40" viewBox="0 0 40 40" fill="none" xmlns="http://www.w3.org/2000/svg">
<rect x="40" y="40" width="40" height="40" rx="6" transform="rotate(-180 40 40)" fill="#1F283F"/>
<rect x="40" y="40" width="40" height="40" rx="6" transform="rotate(-180 40 40)" fill="white" fill-opacity="0.9"/>
<path d="M28.9544 16.2931C28.9123 15.3365 28.7576 14.6789 28.536 14.109C28.3074 13.5041 27.9557 12.9625 27.4949 12.5123C27.0447 12.0551 26.4995 11.6998 25.9016 11.4748C25.3285 11.2532 24.6742 11.0985 23.7176 11.0563C22.7539 11.0106 22.4479 11 20.0036 11C17.5593 11 17.2533 11.0106 16.2931 11.0528C15.3365 11.0949 14.6789 11.2498 14.1091 11.4712C13.5041 11.6998 12.9625 12.0515 12.5123 12.5123C12.0551 12.9625 11.7 13.5077 11.4748 14.1056C11.2532 14.6789 11.0985 15.333 11.0563 16.2896C11.0106 17.2533 11 17.5593 11 20.0036C11 22.4479 11.0106 22.7539 11.0528 23.7141C11.0949 24.6707 11.2498 25.3283 11.4714 25.8982C11.7 26.5031 12.0551 27.0447 12.5123 27.4949C12.9625 27.9521 13.5077 28.3074 14.1056 28.5324C14.6789 28.754 15.333 28.9087 16.2897 28.9509C17.2497 28.9932 17.5558 29.0036 20.0002 29.0036C22.4445 29.0036 22.7505 28.9932 23.7106 28.9509C24.6672 28.9087 25.3249 28.754 25.8946 28.5324C27.1046 28.0646 28.0612 27.108 28.529 25.8982C28.7504 25.3249 28.9053 24.6707 28.9474 23.7141C28.9896 22.7539 29.0002 22.4479 29.0002 20.0036C29.0002 17.5593 28.9966 17.2533 28.9544 16.2931ZM27.3332 23.6437C27.2944 24.523 27.1467 24.9978 27.0236 25.3143C26.7211 26.0986 26.0986 26.7211 25.3143 27.0236C24.9978 27.1467 24.5195 27.2944 23.6437 27.333C22.6941 27.3754 22.4093 27.3858 20.0072 27.3858C17.605 27.3858 17.3166 27.3754 16.3705 27.333C15.4912 27.2944 15.0164 27.1467 14.6999 27.0236C14.3096 26.8794 13.9543 26.6508 13.6659 26.3518C13.367 26.0599 13.1384 25.7082 12.9941 25.3179C12.871 25.0014 12.7233 24.523 12.6847 23.6473C12.6424 22.6977 12.632 22.4128 12.632 20.0106C12.632 17.6084 12.6424 17.3201 12.6847 16.3741C12.7233 15.4948 12.871 15.02 12.9941 14.7035C13.1384 14.313 13.367 13.9579 13.6695 13.6694C13.9613 13.3704 14.313 13.1418 14.7035 12.9977C15.02 12.8746 15.4984 12.7269 16.3741 12.6882C17.3236 12.646 17.6086 12.6354 20.0106 12.6354C22.4163 12.6354 22.7011 12.646 23.6473 12.6882C24.5266 12.7269 25.0014 12.8746 25.3179 12.9977C25.7082 13.1418 26.0635 13.3704 26.3518 13.6694C26.6508 13.9613 26.8794 14.313 27.0236 14.7035C27.1467 15.02 27.2944 15.4982 27.3332 16.3741C27.3753 17.3236 27.3859 17.6084 27.3859 20.0106C27.3859 22.4128 27.3753 22.6941 27.3332 23.6437Z" fill="#0F1525"/>
<path d="M20.0033 15.3788C17.45 15.3788 15.3784 17.4503 15.3784 20.0037C15.3784 22.5571 17.45 24.6286 20.0033 24.6286C22.5567 24.6286 24.6282 22.5571 24.6282 20.0037C24.6282 17.4503 22.5567 15.3788 20.0033 15.3788ZM20.0033 23.0037C18.3469 23.0037 17.0033 21.6603 17.0033 20.0037C17.0033 18.3471 18.3469 17.0036 20.0033 17.0036C21.6599 17.0036 23.0034 18.3471 23.0034 20.0037C23.0034 21.6603 21.6599 23.0037 20.0033 23.0037Z" fill="#0F1525"/>
<path d="M25.891 15.1958C25.891 15.792 25.4075 16.2755 24.8111 16.2755C24.2149 16.2755 23.7314 15.792 23.7314 15.1958C23.7314 14.5994 24.2149 14.1161 24.8111 14.1161C25.4075 14.1161 25.891 14.5994 25.891 15.1958Z" fill="#0F1525"/>
</svg>
