<svg width="30" height="40" viewBox="0 0 30 40" fill="none" xmlns="http://www.w3.org/2000/svg">
<path d="M0 0V30.2222C0.00234545 32.2657 1.25093 34.2161 3.34717 35.0972L15 40L26.6528 35.0972C28.7491 34.2161 29.9977 32.2657 30 30.2222V0H0Z" fill="#FFD500"/>
<path d="M0.45459 0.434814V30C0.456881 31.9991 1.66761 33.9071 3.70033 34.7691L15 39.5653L26.2998 34.7691C28.3325 33.9071 29.5432 31.9991 29.5455 30V0.434814H0.45459Z" fill="#005BBB"/>
<path d="M14.9999 2.60864C14.1526 3.52834 13.6363 4.73223 13.6363 6.05362C13.6865 8.95499 14.0585 11.8505 14.0908 14.751C14.1581 17.4542 13.3104 19.9931 12.2797 22.4699C11.9363 23.1543 11.5648 23.8242 11.1931 24.4947L10.0993 24.2841C9.11518 24.0958 8.47502 23.1804 8.67179 22.2388C8.84396 21.415 9.60191 20.8429 10.4474 20.8391L10.8451 20.8799L9.9573 13.7861C9.66712 10.6272 7.96365 7.85636 5.45446 6.05362C5.02326 5.74382 4.56639 5.46059 4.09082 5.21106V30.4062H10.1704C10.6249 32.767 11.983 34.8238 13.892 36.2361C14.346 36.5355 14.7264 36.9304 14.9999 37.3912C15.2735 36.9304 15.6538 36.5355 16.1079 36.2361C18.0168 34.8238 19.3749 32.767 19.8295 30.4062H25.909V5.21106C25.4334 5.46059 24.9766 5.74382 24.5454 6.05362C22.0362 7.85636 20.3327 10.6272 20.0425 13.7861L19.1547 20.8799L19.5525 20.8391C20.3979 20.8429 21.1559 21.415 21.328 22.2388C21.5248 23.1804 20.8846 24.0958 19.9005 24.2841L18.8067 24.4947C18.435 23.8242 18.0635 23.1543 17.7201 22.4699C16.6894 19.9931 15.8417 17.4542 15.909 14.751C15.9413 11.8505 16.3133 8.95499 16.3635 6.05362C16.3635 4.73223 15.8472 3.52834 14.9999 2.60864ZM5.909 8.83949C7.08561 10.1606 7.87526 11.8069 8.11071 13.6162L8.84224 19.4666C7.91075 19.9102 7.20459 20.7241 6.93883 21.7088H5.909V8.83949ZM24.0908 8.83949V21.7088H23.061C22.7952 20.7241 22.0891 19.9102 21.1576 19.4666L21.8891 13.6162C22.1246 11.8069 22.9142 10.1606 24.0908 8.83949ZM14.9999 20.6013C15.4883 22.1296 16.1603 23.5807 16.9957 24.9296C16.2011 25.1605 15.5095 25.6097 14.9999 26.2138C14.4903 25.6097 13.7988 25.1605 13.0042 24.9296C13.8396 23.5807 14.5115 22.1296 14.9999 20.6013ZM5.909 23.4483H6.93883C7.26353 24.6488 8.24316 25.5973 9.48855 25.9284L10.3621 26.1187C10.1282 26.9299 9.99991 27.7847 9.99991 28.6667H5.909V23.4483ZM23.061 23.4483H24.0908V28.6667H19.9999C19.9999 27.7847 19.8716 26.9299 19.6377 26.1187L20.5113 25.9284C21.7567 25.5973 22.7363 24.6488 23.061 23.4483ZM12.1377 26.5196C13.2406 26.6687 14.0908 27.5706 14.0908 28.6667H11.8181C11.8181 27.9211 11.9335 27.2025 12.1377 26.5196ZM17.8621 26.5196C18.0663 27.2025 18.1817 27.9211 18.1817 28.6667H15.909C15.909 27.5706 16.7592 26.6687 17.8621 26.5196ZM12.0241 30.4062H14.0908V34.0686C13.0878 33.0654 12.3592 31.8057 12.0241 30.4062ZM15.909 30.4062H17.9758C17.6406 31.8057 16.912 33.0654 15.909 34.0686V30.4062Z" fill="#FFD500"/>
</svg>
