<svg width="10" height="10" viewBox="0 0 10 10" fill="none" xmlns="http://www.w3.org/2000/svg">
<path d="M8.7918 6.27426C8.20658 6.27426 7.63195 6.18272 7.08743 6.00278C6.8206 5.91177 6.49259 5.99526 6.32974 6.16251L5.25495 6.97387C4.0085 6.30851 3.24071 5.54097 2.58444 4.30387L3.37192 3.25709C3.57651 3.05277 3.64989 2.7543 3.56197 2.47426C3.38125 1.92687 3.28945 1.35252 3.28945 0.767044C3.28947 0.344092 2.94538 0 2.52245 0H0.767019C0.344092 0 0 0.344092 0 0.767019C0 5.61487 3.94395 9.5588 8.7918 9.5588C9.21473 9.5588 9.55882 9.21471 9.55882 8.79178V7.04125C9.5588 6.61835 9.21471 6.27426 8.7918 6.27426Z" fill="#081223"/>
</svg>
