<svg width="15" height="15" viewBox="0 0 15 15" fill="none" xmlns="http://www.w3.org/2000/svg">
<path d="M13.8519 13.1372L10.6793 9.96462C11.4679 9.0163 11.943 7.79854 11.943 6.47168C11.943 3.45458 9.48848 1 6.47153 1C3.45451 1 1 3.45458 1 6.47168C1 9.48857 3.45451 11.943 6.47153 11.943C7.79832 11.943 9.01614 11.4679 9.96446 10.6793L13.1372 13.8519C13.2358 13.9507 13.3652 14 13.4945 14C13.6239 14 13.7532 13.9507 13.852 13.8519C14.0494 13.6546 14.0494 13.3346 13.8519 13.1372ZM2.01086 6.47168C2.01086 4.01197 4.0119 2.01087 6.47153 2.01087C8.93109 2.01087 10.9321 4.01197 10.9321 6.47168C10.9321 8.93118 8.93109 10.9321 6.47153 10.9321C4.0119 10.9321 2.01086 8.93118 2.01086 6.47168Z" fill="#B3BDD4" stroke="#B3BDD4"/>
</svg>
