<svg width="16" height="16" viewBox="0 0 16 16" fill="none" xmlns="http://www.w3.org/2000/svg">
<rect width="16" height="16" fill="#E5E5E5"/>
<g clip-path="url(#clip0)">
<rect width="1440" height="2178" transform="translate(-1067 -313)" fill="white"/>
<rect x="-1067" y="-313" width="1440" height="2178" fill="#FCFDFF"/>
<path d="M15.8177 14.9381L11.913 11.0334C12.8835 9.86621 13.4683 8.36744 13.4683 6.73438C13.4683 3.02103 10.4474 0 6.73419 0C3.02093 0 0 3.02103 0 6.73438C0 10.4475 3.02093 13.4683 6.73419 13.4683C8.36716 13.4683 9.86602 12.8836 11.0332 11.913L14.938 15.8178C15.0595 15.9393 15.2187 16 15.3779 16C15.537 16 15.6963 15.9393 15.8178 15.8178C16.0607 15.5748 16.0607 15.181 15.8177 14.9381ZM1.24414 6.73438C1.24414 3.70705 3.70695 1.24414 6.73419 1.24414C9.76134 1.24414 12.2241 3.70705 12.2241 6.73438C12.2241 9.76146 9.76134 12.2241 6.73419 12.2241C3.70695 12.2241 1.24414 9.76146 1.24414 6.73438Z" fill="#1B1D1F"/>
</g>
<defs>
<clipPath id="clip0">
<rect width="1440" height="2178" fill="white" transform="translate(-1067 -313)"/>
</clipPath>
</defs>
</svg>
