<svg width="21" height="24" viewBox="0 0 21 24" fill="none" xmlns="http://www.w3.org/2000/svg">
<path d="M7.14087 21.0502C3.55926 19.6472 1.39095 15.9026 1.9592 12.0973C2.70012 7.12124 7.55394 4.01694 12.272 5.2247L12.8523 3.05887C12.8845 2.93855 13.0521 2.91493 13.1334 3.01733L16.7154 7.48732C16.7755 7.56387 16.7463 7.67292 16.6559 7.70917L11.3189 9.78931C11.1972 9.83731 11.0649 9.72933 11.0962 9.61276L11.6755 7.4507C8.35626 6.61773 4.9555 8.721 4.28039 12.143C3.69737 15.0859 5.42627 18.0639 8.26844 19.023C11.2805 20.0396 14.4727 18.5495 15.7147 15.7791C15.9453 15.2646 16.5201 14.9995 17.0615 15.1445C17.7346 15.3249 18.1008 16.0638 17.8172 16.7011C16.0577 20.6507 11.4195 22.7246 7.14087 21.0502Z" fill="#1B1D1F"/>
</svg>
