<svg width="64" height="70" viewBox="0 0 64 70" fill="none" xmlns="http://www.w3.org/2000/svg">
<g filter="url(#filter0_d)">
<path d="M20 22C20 18.6863 22.6863 16 26 16H38C41.3137 16 44 18.6863 44 22V40C44 43.3137 41.3137 46 38 46H26C22.6863 46 20 43.3137 20 40V22Z" fill="white"/>
</g>
<path d="M12.5 10C12.5 8.067 14.067 6.5 16 6.5H48C49.933 6.5 51.5 8.067 51.5 10V42C51.5 43.933 49.933 45.5 48 45.5H16C14.067 45.5 12.5 43.933 12.5 42V10Z" fill="#FAFAFC" stroke="#E2E5EC"/>
<path d="M41 20.7314C40.3306 21.025 39.6174 21.2196 38.8737 21.3141C39.6388 20.8574 40.2226 20.1396 40.4971 19.2745C39.7839 19.6997 38.9964 20.0001 38.1571 20.1678C37.4799 19.4466 36.5146 19 35.4616 19C33.4186 19 31.7739 20.6583 31.7739 22.6911C31.7739 22.9836 31.7986 23.2649 31.8594 23.5326C28.7915 23.383 26.0769 21.9126 24.2533 19.6728C23.9349 20.2251 23.7481 20.8574 23.7481 21.538C23.7481 22.816 24.4062 23.9489 25.3872 24.6047C24.7944 24.5935 24.2127 24.4214 23.72 24.1502C23.72 24.1615 23.72 24.1761 23.72 24.1907C23.72 25.984 24.9991 27.4735 26.6765 27.8166C26.3761 27.8988 26.0487 27.9381 25.709 27.9381C25.4727 27.9381 25.2342 27.9246 25.0104 27.8751C25.4885 29.3365 26.8453 30.4109 28.4585 30.4457C27.203 31.4279 25.6089 32.0196 23.8831 32.0196C23.5805 32.0196 23.2902 32.0061 23 31.969C24.6346 33.0231 26.5719 33.625 28.661 33.625C35.4515 33.625 39.164 28 39.164 23.1242C39.164 22.9611 39.1584 22.8036 39.1505 22.6473C39.8829 22.1275 40.4982 21.4784 41 20.7314Z" fill="black"/>
<defs>
<filter id="filter0_d" x="0" y="0" width="64" height="70" filterUnits="userSpaceOnUse" color-interpolation-filters="sRGB">
<feFlood flood-opacity="0" result="BackgroundImageFix"/>
<feColorMatrix in="SourceAlpha" type="matrix" values="0 0 0 0 0 0 0 0 0 0 0 0 0 0 0 0 0 0 127 0"/>
<feOffset dy="4"/>
<feGaussianBlur stdDeviation="10"/>
<feColorMatrix type="matrix" values="0 0 0 0 0 0 0 0 0 0 0 0 0 0 0 0 0 0 0.1 0"/>
<feBlend mode="normal" in2="BackgroundImageFix" result="effect1_dropShadow"/>
<feBlend mode="normal" in="SourceGraphic" in2="effect1_dropShadow" result="shape"/>
</filter>
</defs>
</svg>
